<?xml version="1.0" encoding="UTF-8"?>
<svg xmlns="http://www.w3.org/2000/svg" width="1280" height="960" viewBox="0 0 1280 960">
<rect x="0" y="0" width="1280" height="430" fill="#dbbb9d"/>
<rect x="0" y="430" width="1280" height="218" fill="#c9a181"/>
<rect x="0" y="424" width="1280" height="6" fill="#000000" opacity="0.08"/>
<path d="M 575 648 L 575 328 Q 680 178 785 328 L 785 648 Z" fill="#e3c67e" opacity="0.5"/>
<rect x="855" y="180" width="170" height="230" fill="#8a512f"/>
<rect x="869" y="196" width="142" height="158" fill="#e3c67e"/>
<rect x="881" y="252" width="110" height="46" fill="#8a512f"/>
<rect x="0" y="648" width="1280" height="312" fill="#e0d2b3"/>
<line x1="0" y1="848" x2="1280" y2="848" stroke="#000000" stroke-width="2" opacity="0.1"/>
<line x1="0" y1="903" x2="1280" y2="903" stroke="#000000" stroke-width="2" opacity="0.08"/>
<ellipse cx="432.58245597593486" cy="866.6053607668728" rx="260" ry="70" fill="#5a2d1c" opacity="0.55"/>
<rect x="0" y="638" width="1280" height="14" fill="#4a4033"/>
<rect x="0" y="652" width="1280" height="4" fill="#d8cfb8" opacity="0.55"/>
<g transform="translate(70 0)"><rect x="12.3" y="-76.7" width="220.5" height="76.7" fill="#2f3b45"/><rect x="34.3" y="-159.8" width="176.4" height="76.7" fill="#8a512f"/><rect x="56.4" y="-242.8" width="132.3" height="76.7" fill="#2f3b45"/><rect x="56.4" y="-255.6" width="132.3" height="19.2" fill="#241d16"/></g><ellipse cx="192.5" cy="644" rx="107.8" ry="17.1" fill="#000000" opacity="0.14"/>
<g transform="translate(826.8 0) scale(-1 1)"><ellipse cx="143.4" cy="-117.6" rx="80.3" ry="89.6" fill="#2f3b45"/><path d="M 114.7 -56 L 114.7 -11.2 L 172.1 -11.2 L 172.1 -56 Z" fill="#2f3b45"/><rect x="97.5" y="-218.4" width="91.8" height="39.2" fill="#2f3b45"/><ellipse cx="143.4" cy="-218.4" rx="34.4" ry="19.6" fill="#2f3b45"/><ellipse cx="143.4" cy="-5.6" rx="57.4" ry="16.8" fill="#2f3b45"/></g><ellipse cx="683.4" cy="644" rx="126.2" ry="20.1" fill="#000000" opacity="0.14"/>
<g transform="translate(990 0)"><circle cx="88.8" cy="-90.7" r="49.7" fill="#2f3b45"/><circle cx="88.8" cy="-90.7" r="43.7" fill="#2f3b45"/><rect x="88.8" y="-94.3" width="2" height="22.4" fill="#241d16"/><rect x="88.8" y="-90.7" width="19.9" height="2" fill="#241d16"/><rect x="60.4" y="-119.7" width="56.8" height="61.7" fill="#2f3b45"/><rect x="79.9" 0 width="17.8" height="21.8" fill="#5a2d1c"/></g><ellipse cx="1078.8" cy="644" rx="78.2" ry="12.4" fill="#000000" opacity="0.14"/>
<text x="1260" y="938" font-family="sans-serif" font-size="22" text-anchor="end" fill="#4a4033" opacity="0.6">Synthetic evaluation fixture · 34 of 50</text>
</svg>
