<?xml version="1.0" encoding="UTF-8"?>
<svg xmlns="http://www.w3.org/2000/svg" width="1280" height="960" viewBox="0 0 1280 960">
<rect x="0" y="0" width="1280" height="430" fill="#cfdbc9"/>
<rect x="0" y="430" width="1280" height="218" fill="#b5c7b0"/>
<rect x="0" y="424" width="1280" height="6" fill="#000000" opacity="0.08"/>
<path d="M 575 648 L 575 328 Q 680 178 785 328 L 785 648 Z" fill="#d0b473" opacity="0.5"/>
<rect x="855" y="180" width="170" height="230" fill="#87937a"/>
<rect x="869" y="196" width="142" height="158" fill="#d0b473"/>
<rect x="881" y="252" width="110" height="46" fill="#87937a"/>
<rect x="0" y="648" width="1280" height="312" fill="#ddcdb0"/>
<line x1="0" y1="848" x2="1280" y2="848" stroke="#000000" stroke-width="2" opacity="0.1"/>
<line x1="0" y1="903" x2="1280" y2="903" stroke="#000000" stroke-width="2" opacity="0.08"/>
<ellipse cx="344.0621125046164" cy="838.4455459313467" rx="260" ry="70" fill="#7a5a43" opacity="0.55"/>
<rect x="0" y="638" width="1280" height="14" fill="#4a4033"/>
<rect x="0" y="652" width="1280" height="4" fill="#d8cfb8" opacity="0.55"/>
<g transform="translate(70 0)"><ellipse cx="129.9" cy="-80.9" rx="72.7" ry="61.7" fill="#3f5d4f"/><path d="M 103.9 -38.5 L 103.9 -7.7 L 155.9 -7.7 L 155.9 -38.5 Z" fill="#7a5a43"/><rect x="88.3" y="-150.3" width="83.1" height="27" fill="#7a5a43"/><ellipse cx="129.9" cy="-150.3" rx="31.2" ry="13.5" fill="#3f5d4f"/><ellipse cx="129.9" cy="-3.9" rx="51.9" ry="11.6" fill="#7a5a43"/></g><ellipse cx="199.9" cy="644" rx="114.3" ry="18.2" fill="#000000" opacity="0.14"/>
<g transform="translate(789.5 0) scale(-1 1)"><path d="M 49.9 0 L 19.9 -189.8 L 229.5 -189.8 L 199.5 0 Z" fill="#d0b473"/><line x1="22.7" y1="-73.5" x2="226.7" y2="-73.5" stroke="#d0b473" stroke-width="4"/><line x1="5.2" y1="-134.7" x2="244.2" y2="-134.7" stroke="#d0b473" stroke-width="4"/><line x1="12.2" y1="-196" x2="237.2" y2="-196" stroke="#d0b473" stroke-width="4"/><path d="M 74.8 -189.8 Q 124.7 -257.2 174.6 -189.8" fill="none" stroke="#d0b473" stroke-width="15" stroke-linecap="round"/></g><ellipse cx="664.7" cy="644" rx="109.8" ry="17.5" fill="#000000" opacity="0.14"/>
<g transform="translate(1258.3 0) scale(-1 1)"><rect x="16.1" y="-183.7" width="236.1" height="137.8" rx="12" fill="#7a5a43"/><rect x="42.9" y="-171.2" width="182.5" height="112.7" rx="8" fill="#e7f2f2"/><path d="M 64.4 -54.3 L 80.5 0 L 96.6 -54.3 Z" fill="#d0b473"/><path d="M 177.1 -54.3 L 193.2 0 L 209.3 -54.3 Z" fill="#d0b473"/></g><ellipse cx="1124.2" cy="644" rx="118.1" ry="18.8" fill="#000000" opacity="0.14"/>
<text x="1260" y="938" font-family="sans-serif" font-size="22" text-anchor="end" fill="#4a4033" opacity="0.6">Synthetic evaluation fixture · 3 of 50</text>
</svg>
