<?xml version="1.0" encoding="UTF-8"?>
<svg xmlns="http://www.w3.org/2000/svg" width="1280" height="960" viewBox="0 0 1280 960">
<rect x="0" y="0" width="1280" height="430" fill="#e6dec9"/>
<rect x="0" y="430" width="1280" height="218" fill="#d4c8aa"/>
<rect x="0" y="424" width="1280" height="6" fill="#000000" opacity="0.08"/>
<path d="M 575 648 L 575 328 Q 680 178 785 328 L 785 648 Z" fill="#8a7754" opacity="0.5"/>
<rect x="855" y="180" width="170" height="230" fill="#8a7754"/>
<rect x="869" y="196" width="142" height="158" fill="#cfd2d8"/>
<rect x="881" y="252" width="110" height="46" fill="#8a7754"/>
<rect x="0" y="648" width="1280" height="312" fill="#cbbf9d"/>
<line x1="0" y1="848" x2="1280" y2="848" stroke="#000000" stroke-width="2" opacity="0.1"/>
<line x1="0" y1="903" x2="1280" y2="903" stroke="#000000" stroke-width="2" opacity="0.08"/>
<ellipse cx="337.8657714743167" cy="841.227880788967" rx="260" ry="70" fill="#cfd2d8" opacity="0.55"/>
<rect x="0" y="638" width="1280" height="14" fill="#4a4033"/>
<rect x="0" y="652" width="1280" height="4" fill="#d8cfb8" opacity="0.55"/>
<g transform="translate(70 0)"><rect x="12.3" y="-74.2" width="219.9" height="74.2" fill="#b0543f"/><rect x="34.3" y="-154.6" width="175.9" height="74.2" fill="#cfd2d8"/><rect x="56.2" y="-234.9" width="131.9" height="74.2" fill="#b0543f"/><rect x="56.2" y="-247.3" width="131.9" height="18.5" fill="#241d16"/></g><ellipse cx="192.2" cy="644" rx="107.5" ry="17.1" fill="#000000" opacity="0.14"/>
<g transform="translate(797.1 0) scale(-1 1)"><path d="M 92.5 0 L 61.7 -114.9 L 195.3 -114.9 L 164.5 0 Z" fill="#cfd2d8"/><rect x="102.8" y="-163.6" width="51.4" height="53.1" fill="#b0543f"/><rect x="87.4" y="-176.8" width="82.3" height="17.7" fill="#b0543f"/><rect x="77.1" y="-11.1" width="102.8" height="11.1" fill="#b0543f"/></g><ellipse cx="668.5" cy="644" rx="113.1" ry="18" fill="#000000" opacity="0.14"/>
<g transform="translate(990 0)"><rect x="0" y="-217.8" width="184" height="217.8" fill="#b0543f"/><rect x="14.7" y="-180.8" width="154.6" height="32.4" fill="#b0543f"/><rect x="14.7" y="-97.3" width="154.6" height="27.8" fill="#b0543f"/><rect x="84.6" y="-217.8" width="14.7" height="217.8" fill="#b0543f"/><line x1="25.8" y1="-217.8" x2="25.8" y2="0" stroke="#241d16" stroke-width="2"/><line x1="158.3" y1="-217.8" x2="158.3" y2="0" stroke="#241d16" stroke-width="2"/></g><ellipse cx="1082" cy="644" rx="81" ry="12.9" fill="#000000" opacity="0.14"/>
<text x="1260" y="938" font-family="sans-serif" font-size="22" text-anchor="end" fill="#4a4033" opacity="0.6">Synthetic evaluation fixture · 35 of 50</text>
</svg>
