<?xml version="1.0" encoding="UTF-8"?>
<svg xmlns="http://www.w3.org/2000/svg" width="1280" height="960" viewBox="0 0 1280 960">
<rect x="0" y="0" width="1280" height="430" fill="#c6cfdc"/>
<rect x="0" y="430" width="1280" height="218" fill="#aeb9cb"/>
<rect x="0" y="424" width="1280" height="6" fill="#000000" opacity="0.08"/>
<path d="M 575 648 L 575 328 Q 680 178 785 328 L 785 648 Z" fill="#28313f" opacity="0.5"/>
<rect x="855" y="180" width="170" height="230" fill="#7b8898"/>
<rect x="869" y="196" width="142" height="158" fill="#c4944a"/>
<rect x="881" y="252" width="110" height="46" fill="#7b8898"/>
<rect x="0" y="648" width="1280" height="312" fill="#d7cfc0"/>
<line x1="0" y1="848" x2="1280" y2="848" stroke="#000000" stroke-width="2" opacity="0.1"/>
<line x1="0" y1="903" x2="1280" y2="903" stroke="#000000" stroke-width="2" opacity="0.08"/>
<ellipse cx="338.74688752926886" cy="842.9057591995224" rx="260" ry="70" fill="#28313f" opacity="0.55"/>
<rect x="0" y="638" width="1280" height="14" fill="#4a4033"/>
<rect x="0" y="652" width="1280" height="4" fill="#d8cfb8" opacity="0.55"/>
<g transform="translate(324.1 0) scale(-1 1)"><rect x="0" y="-168.9" width="254.1" height="24.6" fill="#28313f"/><rect x="10.2" y="-154.8" width="106.7" height="144.2" fill="#7b8898"/><rect x="137.2" y="-154.8" width="106.7" height="144.2" fill="#28313f"/><line x1="63.5" y1="-154.8" x2="63.5" y2="-10.6" stroke="#e7f2f2" stroke-width="5.1"/><circle cx="182.9" cy="-82.7" r="11.4" fill="#241d16"/><rect x="20.3" y="-7" width="213.4" height="7" fill="#28313f"/></g><ellipse cx="197" cy="644" rx="111.8" ry="17.8" fill="#000000" opacity="0.14"/>
<g transform="translate(838.2 0) scale(-1 1)"><path d="M 83.5 0 L 119.3 -208.3 L 178.9 -208.3 L 214.7 0 Z" fill="#28313f"/><path d="M 59.6 -208.3 L 29.8 -305.5 L 268.4 -305.5 L 238.6 -208.3 Z" fill="#3f5a6b"/><rect x="53.7" y="-20.8" width="190.8" height="20.8" fill="#3f5a6b"/><ellipse cx="149.1" cy="-260.4" rx="65.6" ry="17.4" fill="#f2dc9b"/></g><ellipse cx="689.1" cy="644" rx="131.2" ry="20.9" fill="#000000" opacity="0.14"/>
<g transform="translate(990 0)"><circle cx="132.1" cy="-118" r="74" fill="#3f5a6b"/><ellipse cx="132.1" cy="-118" rx="33.3" ry="77.7" fill="none" stroke="#c4944a" stroke-width="3"/><path d="M 58.1 -118 A 74 25.9 0 0 1 206.1 -118" fill="none" stroke="#c4944a" stroke-width="3"/><rect x="116.3" y="-118" width="31.7" height="108.6" fill="#c4944a"/><ellipse cx="132.1" cy="-9.4" rx="74" ry="11.8" fill="#c4944a"/></g><ellipse cx="1122.1" cy="644" rx="116.2" ry="18.5" fill="#000000" opacity="0.14"/>
<text x="1260" y="938" font-family="sans-serif" font-size="22" text-anchor="end" fill="#4a4033" opacity="0.6">Synthetic evaluation fixture · 32 of 50</text>
</svg>
