<?xml version="1.0" encoding="UTF-8"?>
<svg xmlns="http://www.w3.org/2000/svg" width="1280" height="960" viewBox="0 0 1280 960">
<rect x="0" y="0" width="1280" height="430" fill="#c2b196"/>
<rect x="0" y="430" width="1280" height="218" fill="#a8916f"/>
<rect x="0" y="424" width="1280" height="6" fill="#000000" opacity="0.08"/>
<path d="M 575 648 L 575 328 Q 680 178 785 328 L 785 648 Z" fill="#efe6d2" opacity="0.5"/>
<rect x="855" y="180" width="170" height="230" fill="#a98f4f"/>
<rect x="869" y="196" width="142" height="158" fill="#efe6d2"/>
<rect x="881" y="252" width="110" height="46" fill="#a98f4f"/>
<rect x="0" y="648" width="1280" height="312" fill="#d8cdb8"/>
<line x1="0" y1="848" x2="1280" y2="848" stroke="#000000" stroke-width="2" opacity="0.1"/>
<line x1="0" y1="903" x2="1280" y2="903" stroke="#000000" stroke-width="2" opacity="0.08"/>
<ellipse cx="476.7666053585708" cy="828.4614395238459" rx="260" ry="70" fill="#efe6d2" opacity="0.55"/>
<rect x="0" y="638" width="1280" height="14" fill="#4a4033"/>
<rect x="0" y="652" width="1280" height="4" fill="#d8cfb8" opacity="0.55"/>
<g transform="translate(70 0)"><circle cx="105.1" cy="-114" r="58.8" fill="#6e5a3f"/><circle cx="105.1" cy="-114" r="51.7" fill="#a98f4f"/><rect x="105.1" y="-118.5" width="2" height="26.5" fill="#241d16"/><rect x="105.1" y="-114" width="23.5" height="2" fill="#241d16"/><rect x="71.5" y="-150.4" width="67.2" height="77.5" fill="#a98f4f"/><rect x="94.6" 0 width="21" height="27.4" fill="#efe6d2"/></g><ellipse cx="175.1" cy="644" rx="92.5" ry="14.7" fill="#000000" opacity="0.14"/>
<g transform="translate(810 0) scale(-1 1)"><rect x="0" y="-303.5" width="270" height="44.3" fill="#efe6d2"/><rect x="10.8" y="-278.2" width="113.4" height="259.2" fill="#a98f4f"/><rect x="145.8" y="-278.2" width="113.4" height="259.2" fill="#efe6d2"/><line x1="67.5" y1="-278.2" x2="67.5" y2="-19" stroke="#e7f2f2" stroke-width="5.4"/><circle cx="194.4" cy="-148.6" r="12.1" fill="#241d16"/><rect x="21.6" y="-12.6" width="226.8" height="12.6" fill="#efe6d2"/></g><ellipse cx="675" cy="644" rx="118.8" ry="18.9" fill="#000000" opacity="0.14"/>
<g transform="translate(990 0)"><path d="M 71.3 0 L 47.5 -115.3 L 150.5 -115.3 L 126.7 0 Z" fill="#6e5a3f"/><rect x="79.2" y="-164.1" width="39.6" height="53.2" fill="#2f2a22"/><rect x="67.3" y="-177.4" width="63.4" height="17.7" fill="#2f2a22"/><rect x="59.4" y="-11.1" width="79.2" height="11.1" fill="#2f2a22"/></g><ellipse cx="1089" cy="644" rx="87.1" ry="13.9" fill="#000000" opacity="0.14"/>
<text x="1260" y="938" font-family="sans-serif" font-size="22" text-anchor="end" fill="#4a4033" opacity="0.6">Synthetic evaluation fixture · 37 of 50</text>
</svg>
