<?xml version="1.0" encoding="UTF-8"?>
<svg xmlns="http://www.w3.org/2000/svg" width="1280" height="960" viewBox="0 0 1280 960">
<rect x="0" y="0" width="1280" height="430" fill="#c2b196"/>
<rect x="0" y="430" width="1280" height="218" fill="#a8916f"/>
<rect x="0" y="424" width="1280" height="6" fill="#000000" opacity="0.08"/>
<path d="M 575 648 L 575 328 Q 680 178 785 328 L 785 648 Z" fill="#2f2a22" opacity="0.5"/>
<rect x="855" y="180" width="170" height="230" fill="#a98f4f"/>
<rect x="869" y="196" width="142" height="158" fill="#efe6d2"/>
<rect x="881" y="252" width="110" height="46" fill="#a98f4f"/>
<rect x="0" y="648" width="1280" height="312" fill="#d8cdb8"/>
<line x1="0" y1="848" x2="1280" y2="848" stroke="#000000" stroke-width="2" opacity="0.1"/>
<line x1="0" y1="903" x2="1280" y2="903" stroke="#000000" stroke-width="2" opacity="0.08"/>
<ellipse cx="409.7468337183818" cy="854.7506528468803" rx="260" ry="70" fill="#2f2a22" opacity="0.55"/>
<rect x="0" y="638" width="1280" height="14" fill="#4a4033"/>
<rect x="0" y="652" width="1280" height="4" fill="#d8cfb8" opacity="0.55"/>
<g transform="translate(248.5 0) scale(-1 1)"><rect x="0" y="-190" width="178.5" height="27.7" fill="#6e5a3f"/><rect x="7.1" y="-174.2" width="75" height="162.3" fill="#a98f4f"/><rect x="96.4" y="-174.2" width="75" height="162.3" fill="#6e5a3f"/><line x1="44.6" y1="-174.2" x2="44.6" y2="-11.9" stroke="#e7f2f2" stroke-width="3.6"/><circle cx="128.5" cy="-93" r="8" fill="#241d16"/><rect x="14.3" y="-7.9" width="150" height="7.9" fill="#6e5a3f"/></g><ellipse cx="159.3" cy="644" rx="78.6" ry="12.5" fill="#000000" opacity="0.14"/>
<g transform="translate(540 0)"><rect x="10" y="-72.7" width="180.5" height="72.7" fill="#efe6d2"/><rect x="28.1" y="-151.5" width="144.4" height="72.7" fill="#efe6d2"/><rect x="46.1" y="-230.3" width="108.3" height="72.7" fill="#efe6d2"/><rect x="46.1" y="-242.4" width="108.3" height="18.2" fill="#241d16"/></g><ellipse cx="640.3" cy="644" rx="88.3" ry="14" fill="#000000" opacity="0.14"/>
<g transform="translate(1215.5 0) scale(-1 1)"><circle cx="112.8" cy="-108.3" r="63.1" fill="#6e5a3f"/><circle cx="112.8" cy="-108.3" r="55.5" fill="#efe6d2"/><rect x="112.8" y="-112.6" width="2" height="28.4" fill="#241d16"/><rect x="112.8" y="-108.3" width="25.2" height="2" fill="#241d16"/><rect x="76.7" y="-142.9" width="72.2" height="73.6" fill="#efe6d2"/><rect x="101.5" y="-106.1" width="22.6" height="26" fill="#6e5a3f"/></g><ellipse cx="1102.8" cy="644" rx="99.2" ry="15.8" fill="#000000" opacity="0.14"/>
<text x="1260" y="938" font-family="sans-serif" font-size="22" text-anchor="end" fill="#4a4033" opacity="0.6">Synthetic evaluation fixture · 45 of 50</text>
</svg>
